<!-- Generated by IcoMoon.io -->
<svg version="1.1" xmlns="http://www.w3.org/2000/svg" width="32" height="32" viewBox="0 0 32 32">
<title>Juventus_Logo</title>
<path d="M6.481 4.238v-3.358h11.467v15.522c0 5.066-1.451 6.938-8.618 10.086-0.941-1.161-1.487-2.11-1.933-3.231 2.93-1.322 3.838-1.873 3.838-1.873 2.256-1.363 2.848-2.198 2.848-5.659v-11.487h-7.603z"></path>
<path d="M21.623 0.881h3.896v17.011c0 3.783-1.164 7.082-3.671 9.471-1.291 1.274-3.516 2.707-5.851 3.756-1.681-0.811-2.472-1.245-3.759-2.069 6.359-3.093 9.385-5.074 9.385-12.172v-15.997z"></path>
</svg>
