<?xml version="1.0" encoding="utf-8"?>
<!-- Generator: Adobe Illustrator 16.0.0, SVG Export Plug-In . SVG Version: 6.00 Build 0)  -->
<!DOCTYPE svg PUBLIC "-//W3C//DTD SVG 1.0//EN" "http://www.w3.org/TR/2001/REC-SVG-20010904/DTD/svg10.dtd">
<svg version="1.0" id="Layer_1" xmlns="http://www.w3.org/2000/svg" xmlns:xlink="http://www.w3.org/1999/xlink" x="0px" y="0px"
	 width="800px" height="800px" viewBox="0 0 800 800" enable-background="new 0 0 800 800" xml:space="preserve">
<g>
	<path d="M162.021,105.96V22.017h286.684v388.053c0,126.657-36.281,173.462-215.449,252.146
		c-23.517-29.019-37.166-52.757-48.314-80.78c73.259-33.046,95.953-46.824,95.953-46.824
		c56.412-34.078,71.192-54.949,71.192-141.482V105.96H162.021"/>
	<path d="M540.573,22.017h97.406V447.29c0,94.566-29.096,177.051-91.771,236.784c-32.277,31.844-87.912,67.674-146.268,93.909
		c-42.02-20.269-61.789-31.136-93.986-51.734c158.975-77.313,234.618-126.845,234.618-304.302V22.017"/>
</g>
</svg>
